<?xml version="1.0" standalone="no"?>
<!DOCTYPE svg PUBLIC "-//W3C//DTD SVG 1.1//EN" "http://www.w3.org/Graphics/SVG/1.1/DTD/svg11.dtd" >
<svg xmlns="http://www.w3.org/2000/svg" xmlns:xlink="http://www.w3.org/1999/xlink" version="1.1">
<metadata>
Created by FontForge 20190801 at Tue May  1 09:01:31 2007
 By www-data
URW Software, Copyright 1994 by URW
</metadata>
<defs>
<font id="AlternateGothicNo1DRegular" horiz-adv-x="340" >
  <font-face 
    font-family="AlternateGothicNo1DRegular"
    font-weight="500"
    font-stretch="normal"
    units-per-em="1000"
    panose-1="0 0 0 0 0 0 0 0 0 0"
    ascent="800"
    descent="-200"
    x-height="497"
    cap-height="667"
    bbox="-77 -177 734 833"
    underline-thickness="60"
    underline-position="-128"
    unicode-range="U+0020-FB02"
  />
<missing-glyph horiz-adv-x="173" 
 />
    <glyph glyph-name=".notdef" horiz-adv-x="173" 
 />
    <glyph glyph-name=".null" horiz-adv-x="0" 
 />
    <glyph glyph-name="nonmarkingreturn" horiz-adv-x="333" 
 />
    <glyph glyph-name="space" unicode=" " horiz-adv-x="173" 
 />
    <glyph glyph-name="exclam" unicode="!" horiz-adv-x="224" 
d="M81 187l-21 480h104l-24 -480h-59zM65 0v100h93v-100h-93z" />
    <glyph glyph-name="quotedbl" unicode="&#x22;" horiz-adv-x="352" 
d="M130 400h-69l-16 267h101zM292 400h-69l-16 267h101z" />
    <glyph glyph-name="numbersign" unicode="#" horiz-adv-x="366" 
d="M231 477l26 190h49l-26 -190h40l-9 -68h-41l-22 -159h45l-10 -68h-44l-25 -182h-49l25 182h-63l-25 -182h-49l26 182h-41l10 68h40l22 159h-43l11 67h41l27 191h48l-26 -190h63zM222 409h-63l-22 -159h63z" />
    <glyph glyph-name="dollar" unicode="$" 
d="M136 648v59h75v-57q48 -14 68.5 -52.5t17.5 -111.5l-86 -9q0 37 -3 57q-5 39 -35 39q-38 0 -38 -58q0 -29 9.5 -49t52.5 -84l44 -64q63 -90 63 -162q0 -108 -93 -136v-60h-75v57q-30 8 -53 29q-22 22 -31 49t-9 74q0 18 1 33l87 5v-27q0 -49 9.5 -67.5t34.5 -18.5
q41 0 41 62q0 30 -11 54.5t-43 67.5l-43 64q-41 59 -56.5 98t-15.5 80q0 103 89 128z" />
    <glyph glyph-name="percent" unicode="%" horiz-adv-x="474" 
d="M179 579v-173q0 -47 -11 -67q-19 -29 -59 -29q-39 0 -58 29q-11 20 -11 67v173q0 48 11 66q19 29 59 29q39 0 58 -29q11 -18 11 -66zM130 388v209q0 29 -20 29q-21 0 -21 -29v-209q0 -29 21 -29q20 0 20 29zM118 -33l189 733h49l-192 -733h-46zM434 262v-173
q0 -47 -11 -67q-19 -29 -59 -29q-39 0 -58 29q-11 20 -11 67v173q0 48 11 66q19 29 59 29q39 0 58 -29q11 -18 11 -66zM385 71v209q0 29 -20 29q-21 0 -21 -29v-209q0 -29 21 -29q20 0 20 29z" />
    <glyph glyph-name="ampersand" unicode="&#x26;" horiz-adv-x="418" 
d="M377 93v-100q-41 12 -93 61q-31 -34 -58.5 -47.5t-64.5 -13.5q-50 0 -82 43.5t-32 111.5q0 89 70 192q-20 41 -33.5 95t-13.5 93q0 59 32 95.5t85 36.5q48 0 79 -33.5t31 -85.5q0 -87 -93 -209q30 -74 72 -133q18 47 30 114l79 -10q-10 -92 -54 -171q18 -25 46 -39z
M154 251q-27 -51 -27 -97q0 -36 12.5 -57t33.5 -21q28 0 59 39q-17 23 -43 69t-35 67zM171 418q49 75 49 122q0 21 -9 33t-24 12q-19 0 -29.5 -14.5t-10.5 -40.5q0 -32 24 -112z" />
    <glyph glyph-name="quotesingle" unicode="'" horiz-adv-x="193" 
d="M133 400h-72l-16 267h104z" />
    <glyph glyph-name="parenleft" unicode="(" horiz-adv-x="273" 
d="M240 -88l-63 -36q-137 212 -137 414q0 203 137 414l63 -36q-113 -185 -113 -378t113 -378z" />
    <glyph glyph-name="parenright" unicode=")" horiz-adv-x="273" 
d="M33 668l62 36q138 -212 138 -414q0 -203 -138 -414l-62 36q113 185 113 378t-113 378z" />
    <glyph glyph-name="asterisk" unicode="*" horiz-adv-x="313" 
d="M110 574l-70 15l23 69l64 -30l-7 72h73l-7 -72l64 31l23 -70l-70 -15l48 -52l-59 -43l-35 61l-36 -61l-59 43z" />
    <glyph glyph-name="plus" unicode="+" 
d="M303 379v-66h-97v-107h-73v107h-96v66h96v108h73v-108h97z" />
    <glyph glyph-name="comma" unicode="," horiz-adv-x="187" 
d="M47 100h93v-100l-42 -119h-51l34 119h-34v100z" />
    <glyph glyph-name="hyphen" unicode="-" horiz-adv-x="125" 
d="M0 209v78h125v-78h-125z" />
    <glyph glyph-name="period" unicode="." horiz-adv-x="187" 
d="M47 0v100h93v-100h-93z" />
    <glyph glyph-name="slash" unicode="/" horiz-adv-x="311" 
d="M17 -67l209 734h62l-212 -734h-59z" />
    <glyph glyph-name="zero" unicode="0" 
d="M38 170v328q0 59 3.5 81t17.5 44q36 54 111 54t111 -54q14 -22 17.5 -44t3.5 -81v-328q0 -60 -3.5 -81.5t-17.5 -43.5q-36 -55 -111 -55t-111 55q-14 22 -17.5 44t-3.5 81zM209 131v405q0 29 -9 41.5t-30 12.5q-39 0 -39 -54v-405q0 -29 9 -41.5t30 -12.5q39 0 39 54z
" />
    <glyph glyph-name="one" unicode="1" horiz-adv-x="200" 
d="M66 0v537h-47v67q49 28 82 63h58v-667h-93z" />
    <glyph glyph-name="two" unicode="2" 
d="M291 0h-250v77q26 49 94 186q45 92 58 136.5t13 107.5q0 49 -6.5 66.5t-25.5 17.5q-23 0 -30.5 -23t-8.5 -95h-87q-1 14 -1 31q0 84 34 128.5t97 44.5q58 0 88.5 -37t30.5 -107q0 -132 -85 -304q-1 -2 -77 -142h156v-87z" />
    <glyph glyph-name="three" unicode="3" 
d="M41 191h91q-1 -12 -1 -26q0 -49 8.5 -68.5t29.5 -19.5q18 0 26 16q5 14 5 52v91q0 37 -15 54.5t-47 17.5h-12v85q37 1 53 17q21 22 21 54v89q0 37 -29 37q-27 0 -31 -25q-3 -17 -3 -75h-87v21q0 70 17 105q28 61 101 61q58 0 90 -42q28 -37 28 -122q0 -82 -8 -108
t-40 -50q27 -11 37.5 -26.5t14 -49t3.5 -118.5q0 -88 -31.5 -129.5t-98.5 -41.5q-63 0 -93 39t-30 121q0 22 1 41z" />
    <glyph glyph-name="four" unicode="4" 
d="M174 0v149h-151v87l151 431h93v-431h37v-87h-37v-149h-93zM174 236v241l-73 -241h73z" />
    <glyph glyph-name="five" unicode="5" 
d="M44 189h87v-25q0 -46 9 -66.5t30 -20.5q33 0 33 53v201q0 48 -29 48t-43 -54h-79l10 342h217l-3 -87h-138l-7 -161q37 47 74 47q43 0 67 -40t24 -113v-155q0 -51 -6 -76.5t-23 -46.5q-35 -45 -101 -45q-59 0 -91.5 40.5t-32.5 116.5q0 25 2 42z" />
    <glyph glyph-name="six" unicode="6" 
d="M291 497h-88q1 13 1 27q0 66 -36 66q-19 0 -29 -17q-6 -10 -6 -46v-148q36 39 73 39q43 0 68 -35q15 -21 20 -47.5t5 -84.5v-112q0 -70 -35 -109.5t-97 -39.5q-58 0 -92.5 38.5t-34.5 103.5v407q0 63 34 100.5t91 37.5q39 0 69 -19.5t44 -53.5q13 -33 13 -107zM133 316
v-199q0 -17 10 -28.5t26 -11.5q37 0 37 48v144q0 41 -6.5 56t-23.5 15q-24 0 -43 -24z" />
    <glyph glyph-name="seven" unicode="7" 
d="M88 0l98 580h-140v87h238v-53l-99 -614h-97z" />
    <glyph glyph-name="eight" unicode="8" 
d="M241 355q21 -9 30.5 -16.5t16 -30t8 -52.5t1.5 -92q0 -174 -127 -174q-64 0 -97 43q-30 40 -30 128q0 85 3.5 118.5t14 49t38.5 26.5q-33 25 -41 50.5t-8 108.5q0 84 28 121q31 42 92 42t92 -42q27 -38 27 -121t-8 -108.5t-40 -50.5zM137 543v-88q0 -29 7.5 -41.5
t25.5 -12.5q17 0 24.5 12.5t7.5 41.5v88q0 29 -7.5 41.5t-24.5 12.5q-18 0 -25.5 -12.5t-7.5 -41.5zM134 247v-112q0 -34 8 -46.5t28 -12.5t28 13.5t8 45.5v112q0 32 -8 45.5t-28 13.5t-28 -12.5t-8 -46.5z" />
    <glyph glyph-name="nine" unicode="9" 
d="M48 170h88q-1 -13 -1 -27q0 -66 36 -66q19 0 29 17q6 10 6 46v148q-36 -39 -73 -39q-43 0 -68 35q-15 21 -20 47.5t-5 84.5v112q0 70 35 109.5t97 39.5q58 0 92.5 -38.5t34.5 -103.5v-407q0 -63 -34 -100.5t-91 -37.5q-39 0 -69 19.5t-44 53.5q-13 33 -13 107zM206 351
v199q0 17 -10 28.5t-26 11.5q-37 0 -37 -48v-144q0 -41 6.5 -56t23.5 -15q24 0 43 24z" />
    <glyph glyph-name="colon" unicode=":" horiz-adv-x="187" 
d="M47 351v100h93v-100h-93zM47 0v100h93v-100h-93z" />
    <glyph glyph-name="semicolon" unicode=";" horiz-adv-x="187" 
d="M47 351v100h93v-100h-93zM47 100h93v-100l-42 -119h-51l34 119h-34v100z" />
    <glyph glyph-name="less" unicode="&#x3c;" horiz-adv-x="500" 
d="M466 585v-93l-333 -157l333 -156v-93l-433 209v81z" />
    <glyph glyph-name="equal" unicode="=" 
d="M303 312v-66h-266v66h266zM303 445v-66h-266v66h266z" />
    <glyph glyph-name="greater" unicode="&#x3e;" horiz-adv-x="500" 
d="M34 86v93l333 157l-333 156v93l433 -209v-81z" />
    <glyph glyph-name="question" unicode="?" horiz-adv-x="325" 
d="M125 183v106q0 67 6 93t41 109q24 54 24 72q0 11 -9 19.5t-22 8.5q-27 0 -47 -63l-78 26q30 120 130 120q52 0 84.5 -32t32.5 -85q0 -30 -8 -50t-52 -106q-25 -47 -25 -139v-79h-77zM116 0v100h93v-100h-93z" />
    <glyph glyph-name="at" unicode="@" horiz-adv-x="404" 
d="M360 177h-52l-9 28q-27 -38 -60 -38q-66 0 -66 84v188q0 43 18.5 67t51.5 24q26 0 49 -26v21q0 41 -23.5 66t-61.5 25t-64 -29q-14 -16 -18.5 -34.5t-4.5 -57.5v-311q0 -61 16 -89q24 -44 75 -44q45 0 81 44l41 -46q-46 -59 -122 -59q-71 0 -112 41q-46 46 -46 131v349
q0 80 40 123t114 43q72 0 112.5 -42.5t40.5 -118.5v-339zM242 423v-152q0 -21 5.5 -29.5t19.5 -8.5t19.5 8.5t5.5 29.5v152q0 21 -5.5 29.5t-19.5 8.5t-19.5 -8.5t-5.5 -29.5z" />
    <glyph glyph-name="A" unicode="A" horiz-adv-x="352" 
d="M133 150l-16 -150h-90l91 667h120l87 -667h-91l-17 150h-84zM207 237l-32 309l-32 -309h64z" />
    <glyph glyph-name="B" unicode="B" horiz-adv-x="351" 
d="M40 667h84q60 0 86 -7.5t51 -32.5q41 -41 41 -127q0 -64 -13 -95.5t-47 -53.5q41 -16 56.5 -49.5t15.5 -105.5q0 -60 -7.5 -92.5t-27.5 -55.5q-41 -48 -146 -48h-93v667zM133 87h9q49 0 64 20.5t15 87.5t-15 87.5t-64 20.5h-9v-216zM133 390h13q49 0 59 32q6 17 6 79
q0 45 -14 62t-51 17h-13v-190z" />
    <glyph glyph-name="C" unicode="C" 
d="M210 237h93q0 -14 0.5 -29t1 -24t0.5 -17q0 -177 -135 -177q-131 0 -131 160v367q0 160 131 160q135 0 135 -174q0 -27 -2 -53h-93q2 22 2 46q0 55 -8.5 74.5t-33.5 19.5q-23 0 -30.5 -15t-7.5 -58v-367q0 -43 7.5 -58t30.5 -15q24 0 33 18.5t9 70.5q0 5 -2 71z" />
    <glyph glyph-name="D" unicode="D" horiz-adv-x="343" 
d="M40 667h99q49 0 75.5 -8t47.5 -29q42 -40 42 -117v-359q0 -76 -42 -117q-21 -21 -47.5 -29t-75.5 -8h-99v667zM133 87h12q38 0 52 14t14 53v359q0 38 -14 52.5t-52 14.5h-12v-493z" />
    <glyph glyph-name="E" unicode="E" horiz-adv-x="294" 
d="M40 667h225v-87h-132v-187h92v-87h-92v-219h140v-87h-233v667z" />
    <glyph glyph-name="F" unicode="F" horiz-adv-x="278" 
d="M40 667h225v-87h-132v-187h92v-87h-92v-306h-93v667z" />
    <glyph glyph-name="G" unicode="G" horiz-adv-x="343" 
d="M303 339v-339h-50l-14 46q-38 -56 -87 -56q-28 0 -54 16.5t-40 42.5q-19 35 -19 115v353q0 160 131 160q135 0 135 -174q0 -27 -2 -53h-93q2 21 2 45q0 56 -8.5 75.5t-33.5 19.5q-23 0 -30.5 -15t-7.5 -58v-353q0 -45 3 -58q7 -30 34 -30q31 0 38 32q3 13 3 56v96h-41v79
h134z" />
    <glyph glyph-name="H" unicode="H" horiz-adv-x="342" 
d="M209 306h-76v-306h-93v667h93v-274h76v274h93v-667h-93v306z" />
    <glyph glyph-name="I" unicode="I" horiz-adv-x="173" 
d="M133 667v-667h-93v667h93z" />
    <glyph glyph-name="J" unicode="J" horiz-adv-x="202" 
d="M69 667h93v-507q0 -77 -11 -103q-16 -34 -44.5 -45.5t-96.5 -11.5v92h10q28 0 38.5 13t10.5 45v517z" />
    <glyph glyph-name="K" unicode="K" horiz-adv-x="359" 
d="M235 442l104 -442h-97l-69 315l-40 -109v-206h-93v667h93v-251l91 251h95z" />
    <glyph glyph-name="L" unicode="L" horiz-adv-x="281" 
d="M40 0v667h93v-580h132v-87h-225z" />
    <glyph glyph-name="M" unicode="M" horiz-adv-x="434" 
d="M216 335l66 332h112v-667h-80v471l-78 -471h-40l-78 471v-471h-78v667h110z" />
    <glyph glyph-name="N" unicode="N" horiz-adv-x="376" 
d="M336 667v-667h-93l-110 350v-350h-93v667h80l123 -393v393h93z" />
    <glyph glyph-name="O" unicode="O" horiz-adv-x="341" 
d="M303 498v-328q0 -60 -3.5 -81.5t-17.5 -43.5q-36 -55 -111 -55t-111 55q-14 22 -17.5 44t-3.5 81v328q0 59 3.5 81t17.5 44q36 54 111 54t111 -54q14 -22 17.5 -44t3.5 -81zM210 131v405q0 29 -9 41.5t-30 12.5q-39 0 -39 -54v-405q0 -29 9 -41.5t30 -12.5q39 0 39 54z
" />
    <glyph glyph-name="P" unicode="P" horiz-adv-x="329" 
d="M40 667h88q67 0 97 -12t51 -46q15 -27 20.5 -55t5.5 -83q0 -70 -7 -102t-28 -55q-37 -43 -121 -43h-13v-271h-93v667zM133 357h13q50 0 60 32q6 22 6 80q0 57 -6 79q-10 32 -60 32h-13v-223z" />
    <glyph glyph-name="Q" unicode="Q" horiz-adv-x="341" 
d="M303 498v-328q0 -80 -11 -106q11 -14 29 -20v-92h-9q-59 0 -90 47q-26 -9 -51 -9q-75 0 -111 55q-14 22 -17.5 44t-3.5 81v328q0 59 3.5 81t17.5 44q36 54 111 54t111 -54q14 -22 17.5 -44t3.5 -81zM210 131v405q0 29 -9 41.5t-30 12.5q-39 0 -39 -54v-405q0 -29 9 -41.5
t30 -12.5q39 0 39 54z" />
    <glyph glyph-name="R" unicode="R" horiz-adv-x="348" 
d="M40 667h91q62 0 94 -13.5t51 -47.5q26 -46 26 -125q0 -63 -9 -94t-38 -68l65 -319h-100l-54 287q-14 -3 -33 -4v-283h-93v667zM133 377h13q49 0 59 31q6 19 6 91q0 47 -13.5 64t-51.5 17h-13v-203z" />
    <glyph glyph-name="S" unicode="S" horiz-adv-x="324" 
d="M26 193l92 4v-27q0 -53 10 -73t38 -20q42 0 42 66q0 33 -11.5 59t-45.5 72l-46 68q-43 64 -59.5 105.5t-16.5 85.5q0 66 37.5 105t99.5 39q47 0 79.5 -25.5t42.5 -71.5q5 -25 5 -83l-91 -9q0 39 -3 60q-5 42 -39 42q-39 0 -39 -62q0 -31 10 -52t56 -91l47 -68
q67 -98 67 -188q0 -67 -35 -103t-100 -36q-74 0 -112 51q-29 40 -29 116q0 20 1 36z" />
    <glyph glyph-name="T" unicode="T" horiz-adv-x="285" 
d="M94 0v580h-87v87h271v-87h-91v-580h-93z" />
    <glyph glyph-name="U" unicode="U" horiz-adv-x="344" 
d="M133 667v-536q0 -54 39 -54q21 0 30 12.5t9 41.5v536h93v-498q0 -59 -3.5 -81t-17.5 -44q-36 -54 -111 -54t-111 54q-14 22 -17.5 44t-3.5 81v498h93z" />
    <glyph glyph-name="V" unicode="V" horiz-adv-x="316" 
d="M206 0h-92l-101 667h92l56 -406l53 406h89z" />
    <glyph glyph-name="W" unicode="W" horiz-adv-x="467" 
d="M105 0l-85 667h85l47 -379l45 379h73l45 -393l47 393h85l-85 -667h-81l-49 359l-44 -359h-83z" />
    <glyph glyph-name="X" unicode="X" horiz-adv-x="350" 
d="M120 349l-92 318h94l55 -206l54 206h90l-92 -318l101 -349h-101l-54 221l-55 -221h-100z" />
    <glyph glyph-name="Y" unicode="Y" horiz-adv-x="327" 
d="M117 277l-104 390h101l51 -246l51 246h98l-104 -390v-277h-93v277z" />
    <glyph glyph-name="Z" unicode="Z" horiz-adv-x="313" 
d="M27 0v87l166 493h-147v87h240v-87l-166 -493h166v-87h-259z" />
    <glyph glyph-name="bracketleft" unicode="[" horiz-adv-x="273" 
d="M208 667v-87h-54v-601h54v-87h-136v775h136z" />
    <glyph glyph-name="backslash" unicode="\" horiz-adv-x="311" 
d="M294 -67h-59l-212 734h63z" />
    <glyph glyph-name="bracketright" unicode="]" horiz-adv-x="273" 
d="M65 667h136v-775h-136v87h54v601h-54v87z" />
    <glyph glyph-name="asciicircum" unicode="^" horiz-adv-x="500" 
d="M115 369h-87l169 300h106l169 -300h-87l-135 236z" />
    <glyph glyph-name="underscore" unicode="_" horiz-adv-x="500" 
d="M0 -68h500v-60h-500v60z" />
    <glyph glyph-name="grave" unicode="`" horiz-adv-x="500" 
d="M294 578h-70l-72 75h97z" />
    <glyph glyph-name="a" unicode="a" horiz-adv-x="306" 
d="M276 0h-90q-4 14 -6 40q-31 -47 -74 -47q-76 0 -76 126q0 76 42 124q16 17 27.5 25.5t63.5 43.5q2 1 17 11v56q0 29 -5 37t-22 8q-19 0 -26 -14t-10 -59h-84q6 73 25 103q29 50 96 50q55 0 84 -30.5t29 -88.5v-305q0 -52 9 -80zM180 100v155q-35 -29 -49 -57.5t-14 -70.5
q0 -53 27 -53q19 0 36 26z" />
    <glyph glyph-name="b" unicode="b" horiz-adv-x="309" 
d="M37 0v667h87v-217q46 54 82 54q35 0 52 -29q14 -22 14 -88v-277q0 -66 -14 -88q-17 -29 -52 -29q-37 0 -82 54v-47h-87zM124 404v-311q24 -20 38 -20q23 0 23 37v277q0 37 -22 37q-15 0 -39 -20z" />
    <glyph glyph-name="c" unicode="c" horiz-adv-x="299" 
d="M272 323h-86v20v22q0 33 -7 46t-26 13q-31 0 -31 -51v-249q0 -51 31 -51q19 0 26 13t7 46v22v28h86q2 -39 2 -53q0 -66 -31.5 -101t-90.5 -35q-57 0 -90 42q-27 32 -27 98v231q0 66 27 98q33 42 90 42q59 0 90.5 -35t31.5 -99q0 -13 -2 -47z" />
    <glyph glyph-name="d" unicode="d" horiz-adv-x="309" 
d="M272 0h-85l-2 47q-45 -54 -82 -54q-35 0 -52 29q-14 22 -14 88v277q0 66 14 88q17 29 52 29q36 0 82 -54v217h87v-667zM185 93v311q-24 20 -38 20q-23 0 -23 -37v-277q0 -37 22 -37q15 0 39 20z" />
    <glyph glyph-name="e" unicode="e" horiz-adv-x="309" 
d="M186 174h86q1 -33 1 -45q0 -66 -31 -101t-90 -35q-57 0 -90 42q-27 34 -27 98v232q0 139 121 139q54 0 85 -33t31 -91v-146h-150v-110q0 -51 31 -51q33 0 33 59v22v20zM122 303h63v84q0 37 -31 37q-32 0 -32 -37v-84z" />
    <glyph glyph-name="f" unicode="f" horiz-adv-x="187" 
d="M50 0v417h-39v80h39v58q0 56 20 81q27 33 77 33q8 0 34 -2v-80q-5 1 -14 1q-30 0 -30 -33v-58h44v-80h-44v-417h-87z" />
    <glyph glyph-name="g" unicode="g" horiz-adv-x="305" 
d="M302 504v-82q-13 4 -21 4q-12 0 -26 -9v-34v-122q0 -64 -27 -99t-76 -35q-14 0 -23 1q-25 -4 -25 -24q0 -23 30 -29q13 -3 71 -11q47 -6 74.5 -36.5t27.5 -76.5q0 -58 -42 -93t-111 -35q-64 0 -101 24t-37 66q0 49 74 87q-33 11 -46 24t-13 35q0 47 59 81q-49 37 -49 107
v144q0 51 29 82t77 31q57 0 90 -46q24 42 65 46zM179 244v144q0 37 -31 37t-31 -37v-144q0 -38 31 -38t31 38zM146 -8q-25 -13 -34.5 -24t-9.5 -27q0 -21 15.5 -33t43.5 -12q30 0 47.5 13.5t17.5 36.5t-15.5 32t-64.5 14z" />
    <glyph glyph-name="h" unicode="h" horiz-adv-x="310" 
d="M37 0v667h87v-217q45 54 82 54q35 0 52 -29q14 -22 14 -88v-387h-87v387q0 37 -23 37q-14 0 -38 -20v-404h-87z" />
    <glyph glyph-name="i" unicode="i" horiz-adv-x="161" 
d="M124 497v-497h-87v497h87zM124 667v-89h-87v89h87z" />
    <glyph glyph-name="j" unicode="j" horiz-adv-x="164" 
d="M127 497v-497q0 -71 -6.5 -98.5t-27.5 -44.5q-24 -21 -67 -21q-17 0 -41 7v83q12 -3 18 -3q20 0 28 13q9 12 9 64v497h87zM127 667v-89h-87v89h87z" />
    <glyph glyph-name="k" unicode="k" horiz-adv-x="306" 
d="M208 338l82 -338h-86l-52 241l-28 -69v-172h-87v667h87v-362l66 192h82z" />
    <glyph glyph-name="l" unicode="l" horiz-adv-x="161" 
d="M37 0v667h87v-667h-87z" />
    <glyph glyph-name="m" unicode="m" horiz-adv-x="459" 
d="M37 0v497h85l2 -47q26 31 44.5 42.5t41.5 11.5q42 0 61 -54q34 54 80 54q38 0 56 -29q14 -22 14 -88v-387h-87v387q0 37 -24 37q-14 0 -37 -20v-404h-87v387q0 37 -23 37q-15 0 -39 -20v-404h-87z" />
    <glyph glyph-name="n" unicode="n" horiz-adv-x="310" 
d="M37 497h85l2 -43q47 50 82 50q34 0 52 -28q14 -22 14 -86v-390h-87v387q0 37 -23 37q-14 0 -38 -20v-404h-87v497z" />
    <glyph glyph-name="o" unicode="o" horiz-adv-x="308" 
d="M272 364v-231q0 -140 -118 -140q-119 0 -119 140v231q0 140 119 140q118 0 118 -140zM122 378v-259q0 -46 32 -46q31 0 31 46v259q0 46 -31 46q-32 0 -32 -46z" />
    <glyph glyph-name="p" unicode="p" horiz-adv-x="309" 
d="M37 497h85l2 -47q45 54 82 54q35 0 52 -29q14 -22 14 -88v-277q0 -66 -14 -88q-17 -29 -52 -29q-36 0 -82 54v-217h-87v667zM124 404v-311q24 -20 38 -20q23 0 23 37v277q0 37 -22 37q-15 0 -39 -20z" />
    <glyph glyph-name="q" unicode="q" horiz-adv-x="309" 
d="M272 497v-667h-87v217q-46 -54 -82 -54q-35 0 -52 29q-14 22 -14 88v277q0 66 14 88q17 29 52 29q37 0 82 -54l2 47h85zM185 93v311q-24 20 -38 20q-23 0 -23 -37v-277q0 -37 22 -37q15 0 39 20z" />
    <glyph glyph-name="r" unicode="r" horiz-adv-x="213" 
d="M37 497h87v-62q34 72 88 69v-97q-24 4 -32 4q-56 0 -56 -74v-337h-87v497z" />
    <glyph glyph-name="s" unicode="s" horiz-adv-x="274" 
d="M254 378l-83 -6v6q0 46 -29 46t-29 -47q0 -38 36 -77l35 -36q40 -42 56 -73.5t16 -68.5q0 -58 -33 -93.5t-87 -35.5q-53 0 -85 33t-32 88q0 7 1 12l84 6q-1 -7 -1 -15q0 -44 33 -44q15 0 24 11.5t9 31.5q0 23 -9.5 41t-40.5 50l-34 35q-57 60 -57 136q0 126 120 126
q73 0 97 -60q9 -24 9 -66z" />
    <glyph glyph-name="t" unicode="t" horiz-adv-x="213" 
d="M205 417h-61v-292q0 -46 41 -46q13 0 20 1v-80q-35 -7 -50 -7q-98 0 -98 102v322h-42v80h42v136h87v-136h61v-80z" />
    <glyph glyph-name="u" unicode="u" horiz-adv-x="310" 
d="M272 0h-80l-7 43q-47 -50 -82 -50t-52 28q-14 22 -14 86v390h87v-387q0 -37 23 -37q14 0 38 20v404h87v-497z" />
    <glyph glyph-name="v" unicode="v" horiz-adv-x="282" 
d="M266 497l-84 -497h-82l-83 497h83l41 -287l41 287h84z" />
    <glyph glyph-name="w" unicode="w" horiz-adv-x="417" 
d="M324 0h-67l-47 285l-49 -285h-66l-78 497h78l40 -266l42 266h64l44 -271l39 271h76z" />
    <glyph glyph-name="x" unicode="x" horiz-adv-x="275" 
d="M180 262l82 -262h-82l-44 159l-41 -159h-82l77 262l-71 235h82l35 -142l34 142h82z" />
    <glyph glyph-name="y" unicode="y" horiz-adv-x="284" 
d="M268 497l-91 -565q-17 -109 -126 -109q-11 0 -27 3v83h9q33 0 47.5 17t14.5 55t-9 91l-69 425h85l40 -292l42 292h84z" />
    <glyph glyph-name="z" unicode="z" horiz-adv-x="273" 
d="M246 80v-80h-219v74l128 343h-113v80h204v-74l-124 -343h124z" />
    <glyph glyph-name="braceleft" unicode="{" horiz-adv-x="313" 
d="M183 493v-99q0 -47 -12 -72.5t-43 -42.5q31 -17 43 -43t12 -74v-96q0 -56 19 -74.5t77 -19.5v-80q-79 1 -104 6.5t-45 26.5q-32 35 -32 115v110q0 44 -13 65t-44 30v72q31 9 44 30t13 61v123q0 74 34 105q20 20 46.5 25.5t100.5 5.5v-84q-57 -1 -76.5 -19.5t-19.5 -70.5z
" />
    <glyph glyph-name="bar" unicode="|" horiz-adv-x="500" 
d="M203 667h94v-834h-94v834z" />
    <glyph glyph-name="braceright" unicode="}" horiz-adv-x="313" 
d="M129 66v96q0 48 12 74t43 43q-31 17 -43 42.5t-12 72.5v99q0 52 -19.5 70.5t-75.5 19.5v84q73 0 99.5 -5.5t46.5 -25.5q34 -31 34 -105v-123q0 -40 13 -61t45 -30v-72q-32 -9 -45 -30t-13 -65v-110q0 -80 -32 -115q-20 -21 -45 -26.5t-103 -6.5v80q57 1 76 19.5t19 74.5z
" />
    <glyph glyph-name="asciitilde" unicode="~" horiz-adv-x="667" 
d="M143 574l-49 39q52 118 138 118q37 0 116 -38q66 -31 89 -31q49 0 88 71l49 -39q-51 -116 -147 -116q-20 0 -40 7.5t-78 35.5q-51 25 -82 25q-44 0 -84 -72z" />
    <glyph glyph-name="registered" unicode="&#xa0;" horiz-adv-x="767" 
d="M388 679q139 0 239.5 -102t100.5 -244q0 -143 -101 -244t-243 -101t-243.5 101t-101.5 244q0 145 101.5 245.5t247.5 100.5zM381 629q-118 0 -203 -87t-85 -208q0 -122 85 -209t206 -87q120 0 205 86.5t85 208.5q0 124 -85 210t-208 86zM302 534h59q39 0 59 -8t33 -30
q16 -28 16 -75q0 -38 -5.5 -56.5t-22.5 -40.5l40 -190h-68l-33 169q-7 -2 -14 -2v-167h-64v400zM366 363h5q25 0 30.5 10.5t5.5 57.5q0 27 -7.5 36t-28.5 9h-5v-113z" />
    <glyph glyph-name="exclamdown" unicode="&#xa1;" horiz-adv-x="224" 
d="M81 310h59l24 -480h-104zM65 497h93v-100h-93v100z" />
    <glyph glyph-name="cent" unicode="&#xa2;" 
d="M207 86v-86h-68v85q-25 6 -45 24q-40 36 -40 113v230q0 114 85 136v79h68v-80q85 -24 85 -130q0 -12 -1 -46h-86v20v22q0 33 -7 46t-26 13q-31 0 -31 -51v-249q0 -51 31 -51q19 0 26 13t7 46v23v28h86q1 -42 1 -52q0 -110 -85 -133z" />
    <glyph glyph-name="sterling" unicode="&#xa3;" 
d="M176 390h83v-80h-69q2 -13 2 -39q0 -109 -50 -195q25 7 37 7q4 0 37 -4q16 -2 23 -2q33 0 68 16l23 -78q-31 -16 -46 -20.5t-42 -4.5q-31 0 -76 9q-30 5 -38 5q-18 0 -69 -14l-31 80q70 64 70 182q0 30 -4 58h-56v80h40q-2 9 -8 27q-27 89 -27 122q0 59 39 98.5t97 39.5
t93.5 -40t35.5 -105q0 -11 -3 -35h-85q1 9 1 25q0 68 -43 68q-44 0 -44 -51q0 -21 4.5 -37.5t29.5 -86.5q5 -15 8 -25z" />
    <glyph glyph-name="currency" unicode="&#xa4;" horiz-adv-x="402" 
d="M276 454l39 39l47 -46l-42 -42q18 -33 18 -72q0 -35 -17 -68l43 -43l-52 -51l-40 40q-32 -21 -71 -21t-74 22l-38 -38l-47 46l41 41q-19 33 -19 72q0 32 16 70l-42 42l51 52l40 -41q36 21 72 21q38 0 75 -23zM199 412q-28 0 -49.5 -24t-21.5 -55q0 -33 21.5 -56.5
t51.5 -23.5q29 0 51 23.5t22 55.5q0 34 -21.5 57t-53.5 23z" />
    <glyph glyph-name="yen" unicode="&#xa5;" 
d="M104 377l-77 290h95l49 -243l48 243h94l-78 -290h52v-80h-73v-297h-89v297h-72v80h51z" />
    <glyph glyph-name="logicalnot" unicode="&#xa6;" horiz-adv-x="500" 
d="M374 0v198h-341v83h433v-281h-92z" />
    <glyph glyph-name="section" unicode="&#xa7;" horiz-adv-x="354" 
d="M298 527h-88v21q0 50 -31 50q-12 0 -19.5 -7.5t-7.5 -19.5q0 -15 19 -39l113 -150q30 -39 30 -87q0 -75 -63 -104l10 -12q29 -39 29 -84q0 -46 -34 -75.5t-87 -29.5q-58 0 -91 33t-33 91q0 10 1 19h90q-1 -8 -1 -17q0 -47 33 -47q13 0 20.5 8.5t7.5 22.5t-14 34l-97 127
q-45 57 -45 105q0 68 68 101l-9 11q-38 43 -38 94q0 47 33 76t87 29q53 0 85.5 -33.5t32.5 -88.5q0 -11 -1 -28zM208 336l-49 64q-27 -14 -27 -35q0 -16 12 -33l56 -75q25 13 25 40q0 16 -17 39z" />
    <glyph glyph-name="dieresis" unicode="&#xa8;" horiz-adv-x="500" 
d="M229 667v-89h-77v89h77zM349 667v-89h-77v89h77z" />
    <glyph glyph-name="threequarters" unicode="&#xa9;" horiz-adv-x="545" 
d="M33 386h64q-1 -9 -1 -18q0 -28 4.5 -38.5t16.5 -10.5q10 0 13 7t3 29v54q0 40 -34 40q-8 0 -13 -1v57q47 1 47 39v52q0 19 -15 19q-12 0 -15.5 -7.5t-3.5 -31.5q0 -11 1 -20h-62v17q0 100 78 100q39 0 60 -26q18 -23 18 -75q0 -47 -4.5 -63t-22.5 -29q21 -9 26.5 -28.5
t5.5 -85.5q0 -105 -86 -105q-81 0 -81 98q0 14 1 27zM153 -33l189 733h49l-192 -733h-46zM429 0v88h-95v55l96 257h64v-254h23v-58h-23v-88h-65zM431 142v151l-48 -151h48z" />
    <glyph glyph-name="ordfeminine" unicode="&#xaa;" horiz-adv-x="207" 
d="M185 267h-65l-2 14l-1 3q-21 -21 -43 -21q-51 0 -51 77q0 48 27 76q13 14 58 41l8 6v31q0 15 -2 19t-11 4q-10 0 -13.5 -8t-4.5 -35h-60q4 47 16 66q20 31 63 31q35 0 54.5 -19.5t19.5 -54.5v-179q0 -31 7 -51zM116 330v83q-31 -27 -31 -69q0 -27 13 -27q9 0 18 13z" />
    <glyph glyph-name="guillemotleft" unicode="&#xab;" horiz-adv-x="279" 
d="M239 403v-119l-26 -34l26 -34v-119l-76 81v144zM116 397v-113l-26 -34l26 -34v-113l-76 75v144z" />
    <glyph glyph-name="nbspace" unicode="&#xac;" horiz-adv-x="173" 
 />
    <glyph glyph-name="middot" unicode="&#xad;" horiz-adv-x="187" 
d="M47 207v100h93v-100h-93z" />
    <glyph glyph-name="copyright" unicode="&#xae;" horiz-adv-x="780" 
d="M394 679q139 0 239.5 -102t100.5 -244q0 -143 -101 -244t-243 -101t-243.5 101t-101.5 244q0 145 101.5 245.5t247.5 100.5zM387 629q-118 0 -203 -87t-85 -208q0 -122 85 -209t206 -87q120 0 205 86.5t85 208.5q0 124 -85 210t-208 86zM410 281h63q1 -24 1 -43
q0 -109 -85 -109q-84 0 -84 97v217q0 98 84 98q85 0 85 -107q0 -17 -1 -34h-63v29q0 33 -4.5 43.5t-17.5 10.5q-11 0 -15 -8t-4 -32v-217q0 -24 4 -31.5t15 -7.5q13 0 17.5 10t4.5 42v42z" />
    <glyph glyph-name="macron" unicode="&#xaf;" horiz-adv-x="500" 
d="M168 574v67h164v-67h-164z" />
    <glyph glyph-name="sfthyphen" unicode="&#xb0;" horiz-adv-x="125" 
d="M0 209v78h125v-78h-125z" />
    <glyph glyph-name="trademark" unicode="&#xb1;" horiz-adv-x="492" 
d="M81 287v325h-51v55h164v-55h-52v-325h-61zM446 667v-380h-53v230l-46 -230h-29l-46 229v-229h-52v380h70l43 -183l42 183h71z" />
    <glyph glyph-name="twosuperior" unicode="&#xb2;" horiz-adv-x="230" 
d="M195 266h-164v50q17 30 60 114q27 53 36 81.5t9 60.5q0 44 -18 44q-13 0 -17 -13.5t-4 -56.5h-62v20q0 107 86 107q37 0 57.5 -23t20.5 -65q0 -81 -54 -182l-46 -79h96v-58z" />
    <glyph glyph-name="threesuperior" unicode="&#xb3;" horiz-adv-x="230" 
d="M33 386h64q-1 -9 -1 -18q0 -27 4.5 -38t16.5 -11q16 0 16 19l-1 17v54q0 21 -6 29q-11 11 -27 11q-8 0 -13 -1v57q25 1 35.5 9.5t10.5 29.5v52q0 19 -14 19q-12 0 -15.5 -7.5t-3.5 -31.5q0 -11 1 -20h-62v17q0 100 77 100q38 0 61 -26q18 -22 18 -75q0 -47 -4.5 -63
t-22.5 -29q22 -9 26.5 -26.5t4.5 -89.5q0 -103 -85 -103q-81 0 -81 98q0 14 1 27z" />
    <glyph glyph-name="acute" unicode="&#xb4;" horiz-adv-x="500" 
d="M199 578l46 75h96l-72 -75h-70z" />
    <glyph glyph-name="brokenbar" unicode="&#xb5;" horiz-adv-x="500" 
d="M203 667h94v-338h-94v338zM203 153h94v-320h-94v320z" />
    <glyph glyph-name="paragraph" unicode="&#xb6;" horiz-adv-x="418" 
d="M189 -100v420q-63 2 -106 52t-43 120q0 77 47.5 126t121.5 49h172v-30h-40v-737h-48v737h-55v-737h-49z" />
    <glyph glyph-name="periodcentered" unicode="&#xb7;" horiz-adv-x="187" 
d="M47 207v100h93v-100h-93z" />
    <glyph glyph-name="cedilla" unicode="&#xb8;" horiz-adv-x="500" 
d="M289 -46v-68l-22 -56h-47l17 56h-26v68h78z" />
    <glyph glyph-name="onesuperior" unicode="&#xb9;" horiz-adv-x="230" 
d="M87 267v317h-30v44q32 17 54 39h41v-400h-65z" />
    <glyph glyph-name="ordmasculine" unicode="&#xba;" horiz-adv-x="208" 
d="M182 485v-136q0 -86 -77 -86q-78 0 -78 86v136q0 86 77 86q78 0 78 -86zM89 493v-152q0 -24 16 -24q15 0 15 24v152q0 24 -15 24q-16 0 -16 -24z" />
    <glyph glyph-name="guillemotright" unicode="&#xbb;" horiz-adv-x="279" 
d="M40 403l76 -81v-144l-76 -81v119l26 34l-26 34v119zM163 397l76 -75v-144l-76 -75v113l26 34l-26 34v113z" />
    <glyph glyph-name="onehalf" unicode="&#xbc;" horiz-adv-x="545" 
d="M87 267v317h-30v44q32 17 54 39h41v-400h-65zM154 -33l188 733h50l-192 -733h-46zM510 0h-164v50q16 28 60 114q27 53 36 81t9 60q0 44 -18 44q-13 0 -17 -13.5t-4 -56.5h-62v20q0 107 86 107q37 0 57.5 -23t20.5 -65q0 -80 -54 -181q0 -1 -5 -9.5t-17 -29t-24 -40.5h96
v-58z" />
    <glyph glyph-name="plusminus" unicode="&#xbd;" 
d="M303 134v-66h-266v66h266zM303 357v-66h-97v-106h-73v106h-96v66h96v109h73v-109h97z" />
    <glyph glyph-name="onequarter" unicode="&#xbe;" horiz-adv-x="545" 
d="M87 267v317h-30v44q32 17 54 39h41v-400h-65zM154 -33l188 733h50l-192 -733h-46zM429 0v88h-95v55l96 257h64v-254h23v-58h-23v-88h-65zM431 142v151l-48 -151h48z" />
    <glyph glyph-name="questiondown" unicode="&#xbf;" horiz-adv-x="325" 
d="M200 313v-106q0 -66 -6 -92.5t-41 -108.5q-24 -55 -24 -72q0 -11 9 -19.5t22 -8.5q27 0 47 63l78 -27q-30 -119 -130 -119q-53 0 -85 32.5t-32 84.5q0 30 8 50t52 105q25 49 25 139v79h77zM209 497v-100h-93v100h93z" />
    <glyph glyph-name="Agrave" unicode="&#xc0;" horiz-adv-x="352" 
d="M133 150l-16 -150h-90l91 667h120l87 -667h-91l-17 150h-84zM207 237l-32 309l-32 -309h64zM220 720h-70l-72 75h97z" />
    <glyph glyph-name="Aacute" unicode="&#xc1;" horiz-adv-x="352" 
d="M133 150l-16 -150h-90l91 667h120l87 -667h-91l-17 150h-84zM207 237l-32 309l-32 -309h64zM125 720l46 75h96l-72 -75h-70z" />
    <glyph glyph-name="Acircumflex" unicode="&#xc2;" horiz-adv-x="352" 
d="M133 150l-16 -150h-90l91 667h120l87 -667h-91l-17 150h-84zM207 237l-32 309l-32 -309h64zM84 720l45 76h94l45 -76h-70l-22 26l-22 -26h-70z" />
    <glyph glyph-name="Atilde" unicode="&#xc3;" horiz-adv-x="352" 
d="M133 150l-16 -150h-90l91 667h120l87 -667h-91l-17 150h-84zM207 237l-32 309l-32 -309h64zM94 718v69q22 15 47 15q17 0 36 -8q26 -12 41 -12q16 0 40 17v-69q-24 -17 -40 -17q-15 0 -41 12q-19 8 -36 8q-25 0 -47 -15z" />
    <glyph glyph-name="Adieresis" unicode="&#xc4;" horiz-adv-x="352" 
d="M133 150l-16 -150h-90l91 667h120l87 -667h-91l-17 150h-84zM207 237l-32 309l-32 -309h64zM150 809v-89h-77v89h77zM280 809v-89h-77v89h77z" />
    <glyph glyph-name="Aring" unicode="&#xc5;" horiz-adv-x="352" 
d="M133 150l-16 -150h-90l91 667h120l87 -667h-91l-17 150h-84zM207 237l-32 309l-32 -309h64zM177 833q30 0 51.5 -20.5t21.5 -48.5q0 -30 -21.5 -50.5t-51.5 -20.5q-31 0 -52.5 20.5t-21.5 49.5t21.5 49.5t52.5 20.5zM176 798q-15 0 -25.5 -10.5t-10.5 -24.5t10.5 -24.5
t26.5 -10.5q15 0 25.5 10.5t10.5 24.5q0 15 -10.5 25t-26.5 10z" />
    <glyph glyph-name="AE" unicode="&#xc6;" horiz-adv-x="491" 
d="M235 150h-95l-35 -150h-95l168 667h283v-87h-133v-187h94v-87h-94v-219h142v-87h-235v150zM235 237v315l-75 -315h75z" />
    <glyph glyph-name="Ccedilla" unicode="&#xc7;" 
d="M211 -46v-68l-22 -56h-47l17 56h-26v68h78zM210 237h93q0 -14 0.5 -29t1 -24t0.5 -17q0 -177 -135 -177q-131 0 -131 160v367q0 160 131 160q135 0 135 -174q0 -27 -2 -53h-93q2 22 2 46q0 55 -8.5 74.5t-33.5 19.5q-23 0 -30.5 -15t-7.5 -58v-367q0 -43 7.5 -58
t30.5 -15q24 0 33 18.5t9 70.5q0 5 -2 71z" />
    <glyph glyph-name="Egrave" unicode="&#xc8;" horiz-adv-x="294" 
d="M40 667h225v-87h-132v-187h92v-87h-92v-219h140v-87h-233v667zM191 720h-70l-72 75h97z" />
    <glyph glyph-name="Eacute" unicode="&#xc9;" horiz-adv-x="294" 
d="M40 667h225v-87h-132v-187h92v-87h-92v-219h140v-87h-233v667zM96 720l46 75h96l-72 -75h-70z" />
    <glyph glyph-name="Ecircumflex" unicode="&#xca;" horiz-adv-x="294" 
d="M40 667h225v-87h-132v-187h92v-87h-92v-219h140v-87h-233v667zM55 720l45 76h94l45 -76h-70l-22 26l-22 -26h-70z" />
    <glyph glyph-name="Edieresis" unicode="&#xcb;" horiz-adv-x="294" 
d="M40 667h225v-87h-132v-187h92v-87h-92v-219h140v-87h-233v667zM121 809v-89h-77v89h77zM251 809v-89h-77v89h77z" />
    <glyph glyph-name="Igrave" unicode="&#xcc;" horiz-adv-x="173" 
d="M133 667v-667h-93v667h93zM131 720h-70l-72 75h97z" />
    <glyph glyph-name="Iacute" unicode="&#xcd;" horiz-adv-x="173" 
d="M133 667v-667h-93v667h93zM36 720l46 75h96l-72 -75h-70z" />
    <glyph glyph-name="Icircumflex" unicode="&#xce;" horiz-adv-x="173" 
d="M133 667v-667h-93v667h93zM-5 720l45 76h94l45 -76h-70l-22 26l-22 -26h-70z" />
    <glyph glyph-name="Idieresis" unicode="&#xcf;" horiz-adv-x="173" 
d="M133 667v-667h-93v667h93zM67 809v-89h-77v89h77zM183 809v-89h-77v89h77z" />
    <glyph glyph-name="Eth" unicode="&#xd0;" horiz-adv-x="343" 
d="M40 393v274h99q49 0 75.5 -8t47.5 -29q42 -40 42 -117v-359q0 -76 -42 -117q-21 -21 -47.5 -29t-75.5 -8h-99v306h-34v87h34zM133 393h32v-87h-32v-219h12q38 0 52 14t14 53v359q0 38 -14 52.5t-52 14.5h-12v-187z" />
    <glyph glyph-name="Ntilde" unicode="&#xd1;" horiz-adv-x="376" 
d="M336 667v-667h-93l-110 350v-350h-93v667h80l123 -393v393h93zM106 718v69q22 15 47 15q17 0 36 -8q26 -12 41 -12q16 0 40 17v-69q-24 -17 -40 -17q-15 0 -41 12q-19 8 -36 8q-25 0 -47 -15z" />
    <glyph glyph-name="Ograve" unicode="&#xd2;" horiz-adv-x="341" 
d="M303 498v-328q0 -60 -3.5 -81.5t-17.5 -43.5q-36 -55 -111 -55t-111 55q-14 22 -17.5 44t-3.5 81v328q0 59 3.5 81t17.5 44q36 54 111 54t111 -54q14 -22 17.5 -44t3.5 -81zM210 131v405q0 29 -9 41.5t-30 12.5q-39 0 -39 -54v-405q0 -29 9 -41.5t30 -12.5q39 0 39 54z
M215 720h-70l-72 75h97z" />
    <glyph glyph-name="Oacute" unicode="&#xd3;" horiz-adv-x="341" 
d="M303 498v-328q0 -60 -3.5 -81.5t-17.5 -43.5q-36 -55 -111 -55t-111 55q-14 22 -17.5 44t-3.5 81v328q0 59 3.5 81t17.5 44q36 54 111 54t111 -54q14 -22 17.5 -44t3.5 -81zM210 131v405q0 29 -9 41.5t-30 12.5q-39 0 -39 -54v-405q0 -29 9 -41.5t30 -12.5q39 0 39 54z
M120 720l46 75h96l-72 -75h-70z" />
    <glyph glyph-name="Ocircumflex" unicode="&#xd4;" horiz-adv-x="341" 
d="M303 498v-328q0 -60 -3.5 -81.5t-17.5 -43.5q-36 -55 -111 -55t-111 55q-14 22 -17.5 44t-3.5 81v328q0 59 3.5 81t17.5 44q36 54 111 54t111 -54q14 -22 17.5 -44t3.5 -81zM210 131v405q0 29 -9 41.5t-30 12.5q-39 0 -39 -54v-405q0 -29 9 -41.5t30 -12.5q39 0 39 54z
M79 720l45 76h94l45 -76h-70l-22 26l-22 -26h-70z" />
    <glyph glyph-name="Otilde" unicode="&#xd5;" horiz-adv-x="341" 
d="M303 498v-328q0 -60 -3.5 -81.5t-17.5 -43.5q-36 -55 -111 -55t-111 55q-14 22 -17.5 44t-3.5 81v328q0 59 3.5 81t17.5 44q36 54 111 54t111 -54q14 -22 17.5 -44t3.5 -81zM210 131v405q0 29 -9 41.5t-30 12.5q-39 0 -39 -54v-405q0 -29 9 -41.5t30 -12.5q39 0 39 54z
M89 718v69q22 15 47 15q17 0 36 -8q26 -12 41 -12q16 0 40 17v-69q-24 -17 -40 -17q-15 0 -41 12q-19 8 -36 8q-25 0 -47 -15z" />
    <glyph glyph-name="Odieresis" unicode="&#xd6;" horiz-adv-x="341" 
d="M303 498v-328q0 -60 -3.5 -81.5t-17.5 -43.5q-36 -55 -111 -55t-111 55q-14 22 -17.5 44t-3.5 81v328q0 59 3.5 81t17.5 44q36 54 111 54t111 -54q14 -22 17.5 -44t3.5 -81zM210 131v405q0 29 -9 41.5t-30 12.5q-39 0 -39 -54v-405q0 -29 9 -41.5t30 -12.5q39 0 39 54z
M145 809v-89h-77v89h77zM275 809v-89h-77v89h77z" />
    <glyph glyph-name="minus" unicode="&#xd7;" 
d="M303 379v-66h-266v66h266z" />
    <glyph glyph-name="Oslash" unicode="&#xd8;" horiz-adv-x="341" 
d="M86 17l-16 -49h-32l23 74q-14 22 -18.5 46.5t-4.5 75.5v334q0 60 3.5 81.5t17.5 43.5q35 54 111 54q45 0 82 -25l14 46h36l-23 -73q15 -23 19 -45t4 -82v-328q0 -60 -3.5 -81.5t-17.5 -43.5q-36 -55 -111 -55q-48 0 -84 27zM131 160v-29q0 -29 9 -41.5t30 -12.5
q39 0 39 54v273zM131 267l78 248v21q0 29 -9 42t-30 13q-39 0 -39 -55v-269z" />
    <glyph glyph-name="Ugrave" unicode="&#xd9;" horiz-adv-x="344" 
d="M133 667v-536q0 -54 39 -54q21 0 30 12.5t9 41.5v536h93v-498q0 -59 -3.5 -81t-17.5 -44q-36 -54 -111 -54t-111 54q-14 22 -17.5 44t-3.5 81v498h93zM216 720h-70l-72 75h97z" />
    <glyph glyph-name="Uacute" unicode="&#xda;" horiz-adv-x="344" 
d="M133 667v-536q0 -54 39 -54q21 0 30 12.5t9 41.5v536h93v-498q0 -59 -3.5 -81t-17.5 -44q-36 -54 -111 -54t-111 54q-14 22 -17.5 44t-3.5 81v498h93zM121 720l46 75h96l-72 -75h-70z" />
    <glyph glyph-name="Ucircumflex" unicode="&#xdb;" horiz-adv-x="344" 
d="M133 667v-536q0 -54 39 -54q21 0 30 12.5t9 41.5v536h93v-498q0 -59 -3.5 -81t-17.5 -44q-36 -54 -111 -54t-111 54q-14 22 -17.5 44t-3.5 81v498h93zM80 720l45 76h94l45 -76h-70l-22 26l-22 -26h-70z" />
    <glyph glyph-name="Udieresis" unicode="&#xdc;" horiz-adv-x="344" 
d="M133 667v-536q0 -54 39 -54q21 0 30 12.5t9 41.5v536h93v-498q0 -59 -3.5 -81t-17.5 -44q-36 -54 -111 -54t-111 54q-14 22 -17.5 44t-3.5 81v498h93zM146 809v-89h-77v89h77zM276 809v-89h-77v89h77z" />
    <glyph glyph-name="Yacute" unicode="&#xdd;" horiz-adv-x="327" 
d="M117 277l-104 390h101l51 -246l51 246h98l-104 -390v-277h-93v277zM112 720l46 75h96l-72 -75h-70z" />
    <glyph glyph-name="Thorn" unicode="&#xde;" horiz-adv-x="329" 
d="M40 667h93v-80h17q49 0 78 -13.5t48 -44.5q15 -27 20.5 -55t5.5 -83q0 -70 -7 -102t-28 -55q-37 -43 -121 -43h-13v-191h-93v667zM133 277h13q50 0 60 32q6 22 6 80q0 57 -6 79q-10 32 -60 32h-13v-223z" />
    <glyph glyph-name="germandbls" unicode="&#xdf;" horiz-adv-x="309" 
d="M37 0v508q0 81 18 116q26 50 97 50q59 0 86.5 -34t27.5 -107v-26q0 -54 -7 -71.5t-35 -34.5q29 -8 39 -23t10 -50v-166q0 -64 -5 -92t-20 -46q-10 -13 -33.5 -22t-45.5 -9q-9 0 -17 1v80q21 0 27.5 12t6.5 51v165q0 39 -6.5 49.5t-29.5 10.5v78q19 0 24 6t5 29v72
q0 51 -28 51q-17 0 -22 -14.5t-5 -60.5v-523h-87z" />
    <glyph glyph-name="agrave" unicode="&#xe0;" horiz-adv-x="306" 
d="M276 0h-90q-4 14 -6 40q-31 -47 -74 -47q-76 0 -76 126q0 76 42 124q16 17 27.5 25.5t63.5 43.5q2 1 17 11v56q0 29 -5 37t-22 8q-19 0 -26 -14t-10 -59h-84q6 73 25 103q29 50 96 50q55 0 84 -30.5t29 -88.5v-305q0 -52 9 -80zM180 100v155q-35 -29 -49 -57.5t-14 -70.5
q0 -53 27 -53q19 0 36 26zM197 578h-70l-72 75h97z" />
    <glyph glyph-name="aacute" unicode="&#xe1;" horiz-adv-x="306" 
d="M276 0h-90q-4 14 -6 40q-31 -47 -74 -47q-76 0 -76 126q0 76 42 124q16 17 27.5 25.5t63.5 43.5q2 1 17 11v56q0 29 -5 37t-22 8q-19 0 -26 -14t-10 -59h-84q6 73 25 103q29 50 96 50q55 0 84 -30.5t29 -88.5v-305q0 -52 9 -80zM180 100v155q-35 -29 -49 -57.5t-14 -70.5
q0 -53 27 -53q19 0 36 26zM102 578l46 75h96l-72 -75h-70z" />
    <glyph glyph-name="acircumflex" unicode="&#xe2;" horiz-adv-x="306" 
d="M276 0h-90q-4 14 -6 40q-31 -47 -74 -47q-76 0 -76 126q0 76 42 124q16 17 27.5 25.5t63.5 43.5q2 1 17 11v56q0 29 -5 37t-22 8q-19 0 -26 -14t-10 -59h-84q6 73 25 103q29 50 96 50q55 0 84 -30.5t29 -88.5v-305q0 -52 9 -80zM180 100v155q-35 -29 -49 -57.5t-14 -70.5
q0 -53 27 -53q19 0 36 26zM61 578l45 76h94l45 -76h-70l-22 26l-22 -26h-70z" />
    <glyph glyph-name="atilde" unicode="&#xe3;" horiz-adv-x="306" 
d="M276 0h-90q-4 14 -6 40q-31 -47 -74 -47q-76 0 -76 126q0 76 42 124q16 17 27.5 25.5t63.5 43.5q2 1 17 11v56q0 29 -5 37t-22 8q-19 0 -26 -14t-10 -59h-84q6 73 25 103q29 50 96 50q55 0 84 -30.5t29 -88.5v-305q0 -52 9 -80zM180 100v155q-35 -29 -49 -57.5t-14 -70.5
q0 -53 27 -53q19 0 36 26zM71 576v69q22 15 47 15q17 0 36 -8q29 -12 41 -12q16 0 40 18v-69q-24 -18 -40 -18q-15 0 -41 12q-19 8 -36 8q-24 0 -47 -15z" />
    <glyph glyph-name="adieresis" unicode="&#xe4;" horiz-adv-x="306" 
d="M276 0h-90q-4 14 -6 40q-31 -47 -74 -47q-76 0 -76 126q0 76 42 124q16 17 27.5 25.5t63.5 43.5q2 1 17 11v56q0 29 -5 37t-22 8q-19 0 -26 -14t-10 -59h-84q6 73 25 103q29 50 96 50q55 0 84 -30.5t29 -88.5v-305q0 -52 9 -80zM180 100v155q-35 -29 -49 -57.5t-14 -70.5
q0 -53 27 -53q19 0 36 26zM132 667v-89h-77v89h77zM252 667v-89h-77v89h77z" />
    <glyph glyph-name="aring" unicode="&#xe5;" horiz-adv-x="306" 
d="M276 0h-90q-4 14 -6 40q-31 -47 -74 -47q-76 0 -76 126q0 76 42 124q16 17 27.5 25.5t63.5 43.5q2 1 17 11v56q0 29 -5 37t-22 8q-19 0 -26 -14t-10 -59h-84q6 73 25 103q29 50 96 50q55 0 84 -30.5t29 -88.5v-305q0 -52 9 -80zM180 100v155q-35 -29 -49 -57.5t-14 -70.5
q0 -53 27 -53q19 0 36 26zM154 698q30 0 51.5 -20.5t21.5 -48.5q0 -29 -21.5 -49.5t-51.5 -20.5q-31 0 -52.5 20.5t-21.5 49.5t21.5 49t52.5 20zM153 663q-14 0 -25 -10.5t-11 -23.5q0 -14 10.5 -24.5t26.5 -10.5q15 0 25.5 10.5t10.5 24.5t-10.5 24t-26.5 10z" />
    <glyph glyph-name="ae" unicode="&#xe6;" horiz-adv-x="454" 
d="M331 174h86q1 -33 1 -45q0 -136 -124 -136q-35 0 -55 10t-40 38q-45 -48 -87 -48q-82 0 -82 125q0 79 42 125q15 17 26.5 25.5t64.5 43.5l17 11v56q0 29 -5 37t-22 8q-19 0 -26 -14t-10 -59h-84q6 71 25 103q30 50 94 50q25 0 40.5 -7.5t33.5 -27.5q16 20 33 27.5t44 7.5
q52 0 83 -33.5t31 -90.5v-146h-150v-110q0 -51 31 -51q33 0 33 59v22v20zM180 102v153q-35 -29 -49 -57.5t-14 -70.5q0 -53 27 -53q18 0 36 28zM267 303h63v84q0 37 -31 37q-32 0 -32 -37v-84z" />
    <glyph glyph-name="ccedilla" unicode="&#xe7;" horiz-adv-x="299" 
d="M272 323h-86v20v22q0 33 -7 46t-26 13q-31 0 -31 -51v-249q0 -51 31 -51q19 0 26 13t7 46v22v28h86q2 -39 2 -53q0 -66 -31.5 -101t-90.5 -35q-57 0 -90 42q-27 32 -27 98v231q0 66 27 98q33 42 90 42q59 0 90.5 -35t31.5 -99q0 -13 -2 -47zM193 -46v-68l-22 -56h-47
l17 56h-26v68h78z" />
    <glyph glyph-name="egrave" unicode="&#xe8;" horiz-adv-x="309" 
d="M186 174h86q1 -33 1 -45q0 -66 -31 -101t-90 -35q-57 0 -90 42q-27 34 -27 98v232q0 139 121 139q54 0 85 -33t31 -91v-146h-150v-110q0 -51 31 -51q33 0 33 59v22v20zM122 303h63v84q0 37 -31 37q-32 0 -32 -37v-84zM199 578h-70l-72 75h97z" />
    <glyph glyph-name="eacute" unicode="&#xe9;" horiz-adv-x="309" 
d="M186 174h86q1 -33 1 -45q0 -66 -31 -101t-90 -35q-57 0 -90 42q-27 34 -27 98v232q0 139 121 139q54 0 85 -33t31 -91v-146h-150v-110q0 -51 31 -51q33 0 33 59v22v20zM122 303h63v84q0 37 -31 37q-32 0 -32 -37v-84zM103 578l46 75h96l-72 -75h-70z" />
    <glyph glyph-name="ecircumflex" unicode="&#xea;" horiz-adv-x="309" 
d="M186 174h86q1 -33 1 -45q0 -66 -31 -101t-90 -35q-57 0 -90 42q-27 34 -27 98v232q0 139 121 139q54 0 85 -33t31 -91v-146h-150v-110q0 -51 31 -51q33 0 33 59v22v20zM122 303h63v84q0 37 -31 37q-32 0 -32 -37v-84zM62 578l45 76h94l45 -76h-70l-22 26l-22 -26h-70z
" />
    <glyph glyph-name="edieresis" unicode="&#xeb;" horiz-adv-x="309" 
d="M186 174h86q1 -33 1 -45q0 -66 -31 -101t-90 -35q-57 0 -90 42q-27 34 -27 98v232q0 139 121 139q54 0 85 -33t31 -91v-146h-150v-110q0 -51 31 -51q33 0 33 59v22v20zM122 303h63v84q0 37 -31 37q-32 0 -32 -37v-84zM133 667v-89h-77v89h77zM253 667v-89h-77v89h77z" />
    <glyph glyph-name="igrave" unicode="&#xec;" horiz-adv-x="161" 
d="M124 497v-497h-87v497h87zM125 578h-70l-72 75h97z" />
    <glyph glyph-name="iacute" unicode="&#xed;" horiz-adv-x="161" 
d="M125 497v-497h-87v497h87zM30 578l46 75h96l-72 -75h-70z" />
    <glyph glyph-name="icircumflex" unicode="&#xee;" horiz-adv-x="161" 
d="M125 497v-497h-87v497h87zM-11 578l45 76h94l45 -76h-70l-22 26l-22 -26h-70z" />
    <glyph glyph-name="idieresis" unicode="&#xef;" horiz-adv-x="161" 
d="M124 497v-497h-87v497h87zM66 667v-89h-77v89h77zM172 667v-89h-77v89h77z" />
    <glyph glyph-name="eth" unicode="&#xf0;" horiz-adv-x="308" 
d="M178 650l54 44l26 -30l-53 -44q36 -50 51.5 -102t15.5 -123v-260q0 -73 -30 -107.5t-93 -34.5q-114 0 -114 142v226q0 64 21 98q11 19 33.5 31.5t45.5 12.5q24 0 52 -19q-14 63 -34 91l-44 -37l-26 31l46 39q-9 12 -29 30l44 43q20 -16 34 -31zM122 377v-256
q0 -46 32 -46q31 0 31 46v256q0 46 -31 46q-32 0 -32 -46z" />
    <glyph glyph-name="ntilde" unicode="&#xf1;" horiz-adv-x="310" 
d="M37 497h85l2 -43q47 50 82 50q34 0 52 -28q14 -22 14 -86v-390h-87v387q0 37 -23 37q-14 0 -38 -20v-404h-87v497zM73 576v69q22 15 47 15q17 0 36 -8q29 -12 41 -12q16 0 40 18v-69q-24 -18 -40 -18q-15 0 -41 12q-19 8 -36 8q-24 0 -47 -15z" />
    <glyph glyph-name="ograve" unicode="&#xf2;" horiz-adv-x="308" 
d="M272 364v-231q0 -140 -118 -140q-119 0 -119 140v231q0 140 119 140q118 0 118 -140zM122 378v-259q0 -46 32 -46q31 0 31 46v259q0 46 -31 46q-32 0 -32 -46zM198 578h-70l-72 75h97z" />
    <glyph glyph-name="oacute" unicode="&#xf3;" horiz-adv-x="308" 
d="M272 364v-231q0 -140 -118 -140q-119 0 -119 140v231q0 140 119 140q118 0 118 -140zM122 378v-259q0 -46 32 -46q31 0 31 46v259q0 46 -31 46q-32 0 -32 -46zM103 578l46 75h96l-72 -75h-70z" />
    <glyph glyph-name="ocircumflex" unicode="&#xf4;" horiz-adv-x="308" 
d="M272 364v-231q0 -140 -118 -140q-119 0 -119 140v231q0 140 119 140q118 0 118 -140zM122 378v-259q0 -46 32 -46q31 0 31 46v259q0 46 -31 46q-32 0 -32 -46zM62 578l45 76h94l45 -76h-70l-22 26l-22 -26h-70z" />
    <glyph glyph-name="otilde" unicode="&#xf5;" horiz-adv-x="308" 
d="M272 364v-231q0 -140 -118 -140q-119 0 -119 140v231q0 140 119 140q118 0 118 -140zM122 378v-259q0 -46 32 -46q31 0 31 46v259q0 46 -31 46q-32 0 -32 -46zM72 576v69q22 15 47 15q17 0 36 -8q29 -12 41 -12q16 0 40 18v-69q-24 -18 -40 -18q-15 0 -41 12q-19 8 -36 8
q-24 0 -47 -15z" />
    <glyph glyph-name="odieresis" unicode="&#xf6;" horiz-adv-x="308" 
d="M272 364v-231q0 -140 -118 -140q-119 0 -119 140v231q0 140 119 140q118 0 118 -140zM122 378v-259q0 -46 32 -46q31 0 31 46v259q0 46 -31 46q-32 0 -32 -46zM132 667v-89h-77v89h77zM252 667v-89h-77v89h77z" />
    <glyph glyph-name="multiply" unicode="&#xf7;" 
d="M241 463l47 -46l-69 -69l75 -76l-51 -51l-75 75l-68 -67l-47 46l68 68l-77 77l51 51l77 -76z" />
    <glyph glyph-name="oslash" unicode="&#xf8;" horiz-adv-x="308" 
d="M90 8l-14 -44h-29l20 63q-32 36 -32 106v231q0 140 117 140q33 0 59 -12l16 51h33l-22 -70q34 -35 34 -109v-231q0 -140 -118 -140q-37 0 -64 15zM185 308l-62 -199q4 -36 31 -36q31 0 31 46v189zM122 204l60 196q-6 24 -29 24q-31 0 -31 -46v-174z" />
    <glyph glyph-name="ugrave" unicode="&#xf9;" horiz-adv-x="310" 
d="M272 0h-80l-7 43q-47 -50 -82 -50t-52 28q-14 22 -14 86v390h87v-387q0 -37 23 -37q14 0 38 20v404h87v-497zM199 578h-70l-72 75h97z" />
    <glyph glyph-name="uacute" unicode="&#xfa;" horiz-adv-x="310" 
d="M272 0h-80l-7 43q-47 -50 -82 -50t-52 28q-14 22 -14 86v390h87v-387q0 -37 23 -37q14 0 38 20v404h87v-497zM104 578l46 75h96l-72 -75h-70z" />
    <glyph glyph-name="ucircumflex" unicode="&#xfb;" horiz-adv-x="310" 
d="M272 0h-80l-7 43q-47 -50 -82 -50t-52 28q-14 22 -14 86v390h87v-387q0 -37 23 -37q14 0 38 20v404h87v-497zM63 578l45 76h94l45 -76h-70l-22 26l-22 -26h-70z" />
    <glyph glyph-name="udieresis" unicode="&#xfc;" horiz-adv-x="310" 
d="M272 0h-80l-7 43q-47 -50 -82 -50t-52 28q-14 22 -14 86v390h87v-387q0 -37 23 -37q14 0 38 20v404h87v-497zM133 667v-89h-77v89h77zM253 667v-89h-77v89h77z" />
    <glyph glyph-name="yacute" unicode="&#xfd;" horiz-adv-x="284" 
d="M268 497l-91 -565q-17 -109 -126 -109q-11 0 -27 3v83h9q33 0 47.5 17t14.5 55t-9 91l-69 425h85l40 -292l42 292h84zM91 578l46 75h96l-72 -75h-70z" />
    <glyph glyph-name="thorn" unicode="&#xfe;" horiz-adv-x="308" 
d="M37 667h87v-217q45 54 82 54q35 0 52 -29q14 -22 14 -88v-277q0 -66 -14 -88q-17 -29 -52 -29q-36 0 -82 54v-217h-87v837zM124 404v-311q24 -20 38 -20q23 0 23 37v277q0 37 -22 37q-15 0 -39 -20z" />
    <glyph glyph-name="ydieresis" unicode="&#xff;" horiz-adv-x="284" 
d="M268 497l-91 -565q-17 -109 -126 -109q-11 0 -27 3v83h9q33 0 47.5 17t14.5 55t-9 91l-69 425h85l40 -292l42 292h84zM121 667v-89h-77v89h77zM241 667v-89h-77v89h77z" />
    <glyph glyph-name="dotlessi" unicode="&#x131;" horiz-adv-x="161" 
d="M124 497v-497h-87v497h87z" />
    <glyph glyph-name="Lslash" unicode="&#x141;" horiz-adv-x="281" 
d="M40 279l-27 -20v101l27 20v287h93v-228l70 53v-101l-70 -53v-251h131v-87h-224v279z" />
    <glyph glyph-name="lslash" unicode="&#x142;" horiz-adv-x="204" 
d="M58 296l-45 -35v94l45 35v277h87v-220l46 35v-95l-46 -35v-352h-87v296z" />
    <glyph glyph-name="OE" unicode="&#x152;" horiz-adv-x="463" 
d="M434 667v-87h-131v-187h92v-87h-92v-219h139v-87h-232q-56 0 -76 5q-62 15 -84 70q-11 29 -11 105v308q0 79 11 104q22 55 84 70q19 5 76 5h224zM210 580h-39q-39 0 -39 -54v-385q0 -54 39 -54h39v493z" />
    <glyph glyph-name="oe" unicode="&#x153;" horiz-adv-x="460" 
d="M337 174h86q1 -33 1 -45q0 -65 -31 -100.5t-89 -35.5q-23 0 -37.5 5t-37.5 22q-21 -17 -36 -22t-42 -5q-116 0 -116 140v231q0 140 116 140q38 0 78 -24q40 24 79 24q53 0 84 -33.5t31 -90.5v-146h-150v-110q0 -51 31 -51q34 0 33 59v22v20zM122 378v-259q0 -46 32 -46
t32 46v259q0 46 -32 46t-32 -46zM273 303h63v84q0 37 -31 37q-32 0 -32 -37v-84z" />
    <glyph glyph-name="Scaron" unicode="&#x160;" horiz-adv-x="324" 
d="M26 193l92 4v-27q0 -53 10 -73t38 -20q42 0 42 66q0 33 -11.5 59t-45.5 72l-46 68q-43 64 -59.5 105.5t-16.5 85.5q0 66 37.5 105t99.5 39q47 0 79.5 -25.5t42.5 -71.5q5 -25 5 -83l-91 -9q0 39 -3 60q-5 42 -39 42q-39 0 -39 -62q0 -31 10 -52t56 -91l47 -68
q67 -98 67 -188q0 -67 -35 -103t-100 -36q-74 0 -112 51q-29 40 -29 116q0 20 1 36zM254 796l-45 -76h-94l-45 76h70l22 -26l22 26h70z" />
    <glyph glyph-name="scaron" unicode="&#x161;" horiz-adv-x="274" 
d="M254 378l-83 -6v6q0 46 -29 46t-29 -47q0 -38 36 -77l35 -36q40 -42 56 -73.5t16 -68.5q0 -58 -33 -93.5t-87 -35.5q-53 0 -85 33t-32 88q0 7 1 12l84 6q-1 -7 -1 -15q0 -44 33 -44q15 0 24 11.5t9 31.5q0 23 -9.5 41t-40.5 50l-34 35q-57 60 -57 136q0 126 120 126
q73 0 97 -60q9 -24 9 -66zM229 654l-45 -76h-94l-45 76h70l22 -26l22 26h70z" />
    <glyph glyph-name="Ydieresis" unicode="&#x178;" horiz-adv-x="327" 
d="M117 277l-104 390h101l51 -246l51 246h98l-104 -390v-277h-93v277zM137 809v-89h-77v89h77zM267 809v-89h-77v89h77z" />
    <glyph glyph-name="Zcaron" unicode="&#x17d;" horiz-adv-x="313" 
d="M27 0v87l166 493h-147v87h240v-87l-166 -493h166v-87h-259zM249 796l-45 -76h-94l-45 76h70l22 -26l22 26h70z" />
    <glyph glyph-name="zcaron" unicode="&#x17e;" horiz-adv-x="273" 
d="M246 80v-80h-219v74l128 343h-113v80h204v-74l-124 -343h124zM229 654l-45 -76h-94l-45 76h70l22 -26l22 26h70z" />
    <glyph glyph-name="florin" unicode="&#x192;" 
d="M70 -100l59 566h-39l8 81h40l6 59q5 54 28 81q30 33 80 33q8 0 34 -2l-8 -80l-14 1q-30 0 -33 -33l-7 -59h44l-8 -81h-44l-59 -566h-87z" />
    <glyph glyph-name="circumflex" unicode="&#x2c6;" horiz-adv-x="500" 
d="M158 578l45 76h94l45 -76h-70l-22 26l-22 -26h-70z" />
    <glyph glyph-name="caron" unicode="&#x2c7;" horiz-adv-x="500" 
d="M342 654l-45 -76h-94l-45 76h70l22 -26l22 26h70z" />
    <glyph glyph-name="breve" unicode="&#x2d8;" horiz-adv-x="500" 
d="M158 622l48 33q25 -17 44 -17t43 17l48 -33q-12 -22 -37 -36t-54 -14t-54.5 14t-37.5 36z" />
    <glyph glyph-name="dotaccent" unicode="&#x2d9;" horiz-adv-x="500" 
d="M294 667v-89h-87v89h87z" />
    <glyph glyph-name="ring" unicode="&#x2da;" horiz-adv-x="500" 
d="M251 698q30 0 51.5 -20.5t21.5 -48.5q0 -29 -21.5 -49.5t-51.5 -20.5q-31 0 -52.5 20.5t-21.5 49.5t21.5 49t52.5 20zM250 663q-14 0 -25 -10.5t-11 -23.5q0 -14 10.5 -24.5t26.5 -10.5q15 0 25.5 10.5t10.5 24.5t-10.5 24t-26.5 10z" />
    <glyph glyph-name="ogonek" unicode="&#x2db;" horiz-adv-x="500" 
d="M253 0h46q-44 -37 -44 -68q0 -33 43 -33q13 0 28 5l-8 -51q-15 -7 -35 -7q-37 0 -59.5 18t-22.5 48q0 43 52 88z" />
    <glyph glyph-name="tilde" unicode="&#x2dc;" horiz-adv-x="500" 
d="M168 576v69q22 15 47 15q17 0 36 -8q29 -12 41 -12q16 0 40 18v-69q-24 -18 -40 -18q-15 0 -41 12q-19 8 -36 8q-24 0 -47 -15z" />
    <glyph glyph-name="hungarumlaut" unicode="&#x2dd;" horiz-adv-x="500" 
d="M155 578l39 75h83l-62 -75h-60zM277 578l39 75h83l-62 -75h-60z" />
    <glyph glyph-name="endash" unicode="&#x2013;" 
d="M38 209v78h264v-78h-264z" />
    <glyph glyph-name="emdash" unicode="&#x2014;" horiz-adv-x="382" 
d="M0 209v78h382v-78h-382z" />
    <glyph glyph-name="quoteleft" unicode="&#x2018;" horiz-adv-x="187" 
d="M140 462h-93v100l42 118h51l-34 -118h34v-100z" />
    <glyph glyph-name="quoteright" unicode="&#x2019;" horiz-adv-x="187" 
d="M47 667h93v-100l-42 -118h-51l34 118h-34v100z" />
    <glyph glyph-name="quotesinglbase" unicode="&#x201a;" horiz-adv-x="187" 
d="M47 100h93v-100l-42 -118h-51l34 118h-34v100z" />
    <glyph glyph-name="quotedblleft" unicode="&#x201c;" horiz-adv-x="323" 
d="M277 462h-93v100l42 118h51l-34 -118h34v-100zM140 462h-93v100l42 118h51l-34 -118h34v-100z" />
    <glyph glyph-name="quotedblright" unicode="&#x201d;" horiz-adv-x="323" 
d="M47 667h93v-100l-42 -118h-51l34 118h-34v100zM184 667h93v-100l-42 -118h-51l34 118h-34v100z" />
    <glyph glyph-name="quotedblbase" unicode="&#x201e;" horiz-adv-x="323" 
d="M47 100h93v-100l-42 -118h-51l34 118h-34v100zM184 100h93v-100l-42 -118h-51l34 118h-34v100z" />
    <glyph glyph-name="dagger" unicode="&#x2020;" 
d="M295 502v-75h-84v-427h-80v427h-85v75h85v165h80v-165h84z" />
    <glyph glyph-name="daggerdbl" unicode="&#x2021;" 
d="M295 502v-75h-84v-174h84v-75h-84v-178h-80v178h-85v75h85v174h-85v75h85v165h80v-165h84z" />
    <glyph glyph-name="bullet" unicode="&#x2022;" horiz-adv-x="667" 
d="M337 478q55 0 95.5 -41t40.5 -97q0 -58 -40.5 -98.5t-97.5 -40.5t-98 40.5t-41 97.5q0 58 41 98.5t100 40.5z" />
    <glyph glyph-name="ellipsis" unicode="&#x2026;" horiz-adv-x="560" 
d="M47 0v100h93v-100h-93zM234 0v100h93v-100h-93zM421 0v100h93v-100h-93z" />
    <glyph glyph-name="perthousand" unicode="&#x2030;" horiz-adv-x="660" 
d="M179 579v-173q0 -47 -11 -67q-19 -29 -59 -29q-39 0 -58 29q-11 20 -11 67v173q0 48 11 66q19 29 59 29q39 0 58 -29q11 -18 11 -66zM130 388v209q0 29 -20 29q-21 0 -21 -29v-209q0 -29 21 -29q20 0 20 29zM118 -33l189 733h49l-192 -733h-46zM434 262v-173
q0 -47 -11 -67q-19 -29 -59 -29t-59 29q-11 20 -11 67v173q0 48 11 66q19 29 59 29t59 -29q11 -18 11 -66zM385 71v209q0 29 -21 29t-21 -29v-209q0 -29 21 -29t21 29zM620 262v-173q0 -47 -11 -67q-19 -29 -59 -29q-39 0 -58 29q-11 20 -11 67v173q0 48 11 66q19 29 59 29
q39 0 58 -29q11 -18 11 -66zM571 71v209q0 29 -20 29q-21 0 -21 -29v-209q0 -29 21 -29q20 0 20 29z" />
    <glyph glyph-name="guilsinglleft" unicode="&#x2039;" horiz-adv-x="156" 
d="M116 403v-119l-26 -34l26 -34v-119l-76 81v144z" />
    <glyph glyph-name="guilsinglright" unicode="&#x203a;" horiz-adv-x="156" 
d="M40 403l76 -81v-144l-76 -81v119l26 34l-26 34v119z" />
    <glyph glyph-name="fraction" unicode="&#x2044;" horiz-adv-x="85" 
d="M-77 -33l189 733h49l-192 -733h-46z" />
    <glyph glyph-name="divide" unicode="&#x2122;" 
d="M303 379v-66h-266v66h266zM134 444v77h72v-77h-72zM134 171v77h72v-77h-72z" />
    <glyph glyph-name="degree" unicode="&#x2212;" horiz-adv-x="368" 
d="M186 674q56 0 95.5 -42.5t39.5 -101.5q0 -60 -40 -102t-97 -42t-97 42t-40 101q0 61 40.5 103t98.5 42zM182 609q-28 0 -49.5 -24t-21.5 -55q0 -33 21.5 -57t51.5 -24q29 0 51 23.5t22 55.5q0 34 -22 57.5t-53 23.5z" />
    <glyph glyph-name="fi" unicode="&#xfb01;" horiz-adv-x="329" 
d="M50 0v417h-39v80h39v58q0 60 25 87t80 27q25 0 79 -5v-80q-35 4 -60 4q-20 0 -28.5 -7.5t-8.5 -25.5v-58h155v-497h-87v417h-68v-417h-87z" />
    <glyph glyph-name="fl" unicode="&#xfb02;" horiz-adv-x="329" 
d="M50 0v417h-39v80h39v58q0 61 25 87.5t82 26.5q15 0 22 -1l26 -1h87v-667h-87v586q-20 2 -34 2q-34 0 -34 -33v-58h41v-80h-41v-417h-87z" />
    <glyph glyph-name="mu" horiz-adv-x="310" 
d="M185 497h87v-497h-80l-6 36q-10 -43 -36 -43q-22 0 -26 24v-187h-87v667h87v-368q1 -32 2 -40q5 -25 27 -25q21 0 32 29v404z" />
    </font>
</defs>
</svg>
